<svg width="24" height="24" viewBox="0 0 24 24" fill="none" xmlns="http://www.w3.org/2000/svg">
<g opacity="0.4">
<path d="M11.9999 3.72293C8.63674 3.72293 5.90088 6.45879 5.90088 9.82198C5.90088 11.8957 6.93772 13.7167 8.51476 14.8232V16.7923C8.51476 17.2715 8.90684 17.6636 9.38605 17.6636H14.6138C15.093 17.6636 15.4851 17.2715 15.4851 16.7923V14.8232C17.0621 13.7167 18.099 11.8957 18.099 9.82198C18.099 6.45879 15.3631 3.72293 11.9999 3.72293ZM14.4831 13.3943L13.7425 13.9171V15.921H10.2573V13.9171L9.51674 13.3943C8.3405 12.5753 7.64346 11.2422 7.64346 9.82198C7.64346 7.41721 9.59516 5.46552 11.9999 5.46552C14.4047 5.46552 16.3564 7.41721 16.3564 9.82198C16.3564 11.2422 15.6594 12.5753 14.4831 13.3943Z" fill="black"/>
<path fill-rule="evenodd" clip-rule="evenodd" d="M14.614 20.2771H9.38623V18.5345H14.614V20.2771Z" fill="black"/>
</g>
</svg>
