<svg width="24" height="24" viewBox="0 0 24 24" fill="none" xmlns="http://www.w3.org/2000/svg">
<g opacity="0.4">
<path fill-rule="evenodd" clip-rule="evenodd" d="M12.8149 3.008L13.6285 3.03138C14.7923 3.06483 16.5201 3.44338 17.9795 4.49387C19.4769 5.57164 20.6554 7.33598 20.6554 10.0088V10.7996H12.8149V3.008ZM14.3966 4.69661V9.21802H19.0293C18.8342 7.54644 18.0216 6.47286 17.0556 5.77754C16.2091 5.16824 15.2249 4.8385 14.3966 4.69661Z" fill="black"/>
<path fill-rule="evenodd" clip-rule="evenodd" d="M6.49192 6.6103C7.91782 5.37381 9.68803 4.78941 11.0402 4.83346L11.8053 4.85838V11.6877H18.7749L18.7646 12.4888C18.7475 13.8093 18.1788 15.6036 16.9497 17.0602C15.6957 18.5465 13.7501 19.6832 11.0357 19.6116L11.0153 19.611L10.995 19.6094C5.88063 19.2101 4.03729 15.065 3.95498 12.5148L3.9547 12.5062L3.95461 12.4975C3.92684 9.82297 5.03772 7.87134 6.49192 6.6103ZM5.53606 12.4723C5.60481 14.4855 7.05288 17.7048 11.0978 18.031C13.282 18.0829 14.774 17.1862 15.7409 16.0403C16.4849 15.1585 16.9158 14.1299 17.0909 13.2693H10.2237V6.4782C9.39178 6.63064 8.39366 7.05464 7.52811 7.80522C6.404 8.78001 5.51588 10.2953 5.53606 12.4723Z" fill="black"/>
</g>
</svg>
