<svg width="24" height="24" viewBox="0 0 24 24" fill="none" xmlns="http://www.w3.org/2000/svg">
<g opacity="0.4">
<path fill-rule="evenodd" clip-rule="evenodd" d="M7.11536 5.51922C6.24267 5.51922 5.53522 6.22045 5.53522 7.08548C5.53522 7.9505 6.24267 8.65173 7.11536 8.65173C7.98805 8.65173 8.6955 7.9505 8.6955 7.08548C8.6955 6.22045 7.98805 5.51922 7.11536 5.51922ZM3.71191 7.08548C3.71191 5.22232 5.23569 3.71193 7.11536 3.71193C8.99503 3.71193 10.5188 5.22232 10.5188 7.08548C10.5188 8.94863 8.99503 10.459 7.11536 10.459C5.23569 10.459 3.71191 8.94863 3.71191 7.08548Z" fill="black"/>
<path fill-rule="evenodd" clip-rule="evenodd" d="M16.8849 15.3483C16.0122 15.3483 15.3048 16.0495 15.3048 16.9145C15.3048 17.7796 16.0122 18.4808 16.8849 18.4808C17.7576 18.4808 18.465 17.7796 18.465 16.9145C18.465 16.0495 17.7576 15.3483 16.8849 15.3483ZM13.4814 16.9145C13.4814 15.0514 15.0052 13.541 16.8849 13.541C18.7646 13.541 20.2883 15.0514 20.2883 16.9145C20.2883 18.7777 18.7646 20.2881 16.8849 20.2881C15.0052 20.2881 13.4814 18.7777 13.4814 16.9145Z" fill="black"/>
<path fill-rule="evenodd" clip-rule="evenodd" d="M18.8708 6.42233L6.38621 18.9044L5.02197 17.5399L17.5066 5.05781L18.8708 6.42233Z" fill="black"/>
</g>
</svg>
